<svg width="121" height="41" viewBox="0 0 121 41" fill="none" xmlns="http://www.w3.org/2000/svg">
<path d="M12.51 0.900012V7.35001C11.37 6.63001 9.99 6.24001 8.49 6.24001C3.54 6.24001 0 9.84001 0 14.85C0 19.89 3.54 23.52 8.49 23.52C10.38 23.52 12.06 22.86 13.38 21.75L13.92 22.95H18.03V0.900012H12.51ZM9.24 18.57C7.17 18.57 5.61 16.98 5.61 14.88C5.61 12.75 7.17 11.16 9.24 11.16C11.34 11.16 12.87 12.75 12.87 14.88C12.87 16.98 11.34 18.57 9.24 18.57Z" fill="black"/>
<path d="M21.5257 22.95H27.1057V6.75H21.5257V22.95Z" fill="black"/>
<path d="M43.5977 6.75001L42.8777 8.13001C41.4977 6.96001 39.7277 6.24001 37.7777 6.24001C33.1277 6.24001 29.6777 9.78001 29.6777 14.4C29.6777 19.08 33.1277 22.53 37.7777 22.53C39.3377 22.53 40.7777 22.08 42.0077 21.33V21.81C42.0077 23.73 40.5077 24.93 38.6177 24.93C37.2677 24.93 35.8877 24.33 35.4977 23.25H30.1277C30.8777 27.09 34.0877 29.4 38.6777 29.4C44.0177 29.4 47.3477 26.25 47.3477 21.18V6.78001L43.5977 6.75001ZM38.7077 17.94C36.6677 17.94 35.2277 16.47 35.2277 14.4C35.2277 12.36 36.6977 10.86 38.7077 10.86C40.7177 10.86 42.1577 12.36 42.1577 14.4C42.1577 16.47 40.7177 17.94 38.7077 17.94Z" fill="black"/>
<path d="M50.8812 22.95H56.4612V6.75001H50.8812V22.95Z" fill="black"/>
<path d="M68.7532 18.09C67.5832 18.09 66.8632 17.37 66.8632 16.23V11.07H70.7932V6.75001H66.7432V2.04001H65.5732L58.3132 9.75001V11.07H61.2832V17.16C61.2832 20.76 63.4732 22.95 67.0432 22.95H70.8832V18.09H68.7532Z" fill="black"/>
<path d="M66.7132 23.43L66.1432 24.69C64.8232 23.58 63.1132 22.95 61.1932 22.95C56.2432 22.95 52.7032 26.52 52.7032 31.53C52.7032 36.57 56.2432 40.17 61.1932 40.17C63.0832 40.17 64.7632 39.57 66.0832 38.49L66.5632 39.63H70.8832V31.53L70.7932 23.52L66.7132 23.43ZM61.9432 35.25C59.8432 35.25 58.3132 33.66 58.3132 31.53C58.3132 29.43 59.8432 27.87 61.9432 27.87C64.0432 27.87 65.5732 29.43 65.5732 31.53C65.5732 33.66 64.0432 35.25 61.9432 35.25Z" fill="black"/>
<path d="M72.42 39.54H78V6.75L72.42 6.78001V39.54Z" fill="black"/>
<path d="M80.82 39.45H86.4V23.25H80.82V39.45Z" fill="black"/>
<path d="M95.82 34.2L101.94 23.88V22.95H88.56V27.9H94.23L88.02 38.34V39.15H102V34.2H95.82Z" fill="black"/>
<path d="M120.845 31.32C120.845 26.58 117.245 22.86 112.025 22.86C106.925 22.86 103.235 26.52 103.235 31.47C103.235 36.42 106.955 40.11 112.025 40.11C116.075 40.11 119.375 37.8 120.515 34.11H114.935C114.425 35.07 113.315 35.64 112.025 35.64C110.255 35.64 109.085 34.68 108.725 32.82H120.755C120.815 32.31 120.845 31.83 120.845 31.32ZM112.025 27.24C113.705 27.24 114.875 28.11 115.355 29.73H108.815C109.265 28.11 110.405 27.24 112.025 27.24Z" fill="black"/>
</svg>
