<svg width="1067" height="859" viewBox="0 0 1067 859" fill="none" xmlns="http://www.w3.org/2000/svg">
<g clip-path="url(#clip0)">
<path d="M492.051 183.252H228.835C227.543 183.251 226.304 182.703 225.39 181.728C224.476 180.754 223.962 179.433 223.961 178.055V108.435C223.962 107.057 224.476 105.736 225.39 104.761C226.304 103.787 227.543 103.239 228.835 103.237H492.051C493.343 103.239 494.582 103.787 495.496 104.761C496.409 105.736 496.923 107.057 496.925 108.435V178.055C496.923 179.433 496.409 180.754 495.496 181.728C494.582 182.703 493.343 183.251 492.051 183.252V183.252ZM228.835 105.316C228.06 105.317 227.316 105.646 226.768 106.23C226.22 106.815 225.911 107.608 225.91 108.435V178.055C225.911 178.882 226.22 179.674 226.768 180.259C227.316 180.844 228.06 181.172 228.835 181.173H492.051C492.826 181.172 493.569 180.844 494.118 180.259C494.666 179.674 494.974 178.882 494.975 178.055V108.435C494.974 107.608 494.666 106.815 494.118 106.23C493.569 105.646 492.826 105.317 492.051 105.316L228.835 105.316Z" fill="#3F3D56"/>
<path d="M269.733 161.745C280.699 161.745 289.589 152.266 289.589 140.573C289.589 128.881 280.699 119.402 269.733 119.402C258.767 119.402 249.878 128.881 249.878 140.573C249.878 152.266 258.767 161.745 269.733 161.745Z" fill="#F5A99C"/>
<path d="M315.59 126.459C314.712 126.459 313.871 126.831 313.25 127.492C312.63 128.154 312.281 129.052 312.281 129.988C312.281 130.923 312.63 131.821 313.25 132.483C313.871 133.144 314.712 133.516 315.59 133.516H471.598C472.476 133.516 473.317 133.144 473.938 132.483C474.559 131.821 474.907 130.923 474.907 129.988C474.907 129.052 474.559 128.154 473.938 127.492C473.317 126.831 472.476 126.459 471.598 126.459H315.59Z" fill="#E6E6E6"/>
<path d="M315.59 147.631C314.712 147.631 313.871 148.002 313.25 148.664C312.63 149.326 312.281 150.223 312.281 151.159C312.281 152.095 312.63 152.993 313.25 153.654C313.871 154.316 314.712 154.688 315.59 154.688H382.721C383.156 154.689 383.587 154.598 383.989 154.421C384.391 154.244 384.757 153.984 385.065 153.657C385.373 153.329 385.617 152.94 385.784 152.511C385.95 152.082 386.036 151.623 386.036 151.159C386.036 150.695 385.95 150.236 385.784 149.807C385.617 149.379 385.373 148.99 385.065 148.662C384.757 148.334 384.391 148.074 383.989 147.897C383.587 147.72 383.156 147.63 382.721 147.631H315.59Z" fill="#E6E6E6"/>
<path d="M377.778 431.417H260.793C259.501 431.415 258.262 430.867 257.348 429.893C256.434 428.919 255.92 427.597 255.919 426.22V296.309C255.92 294.931 256.434 293.61 257.348 292.635C258.262 291.661 259.501 291.113 260.793 291.111H377.778C379.071 291.113 380.309 291.661 381.223 292.635C382.137 293.61 382.651 294.931 382.653 296.309V426.22C382.651 427.597 382.137 428.919 381.223 429.893C380.309 430.867 379.071 431.415 377.778 431.417ZM260.793 293.19C260.018 293.191 259.274 293.52 258.726 294.105C258.178 294.689 257.869 295.482 257.869 296.309V426.22C257.869 427.046 258.178 427.839 258.726 428.424C259.274 429.008 260.018 429.337 260.793 429.338H377.778C378.554 429.337 379.297 429.008 379.845 428.424C380.394 427.839 380.702 427.046 380.703 426.22V296.309C380.702 295.482 380.394 294.689 379.845 294.105C379.297 293.52 378.554 293.191 377.778 293.19H260.793Z" fill="#3F3D56"/>
<path d="M285.72 317.901C284.843 317.901 284.001 318.273 283.38 318.935C282.76 319.597 282.411 320.494 282.411 321.43C282.411 322.366 282.76 323.263 283.38 323.925C284.001 324.587 284.843 324.959 285.72 324.959H352.851C353.729 324.959 354.57 324.587 355.191 323.925C355.812 323.263 356.16 322.366 356.16 321.43C356.16 320.494 355.812 319.597 355.191 318.935C354.57 318.273 353.729 317.901 352.851 317.901H285.72Z" fill="#E6E6E6"/>
<path d="M285.72 338.691C285.285 338.69 284.854 338.781 284.452 338.958C284.05 339.135 283.684 339.395 283.377 339.722C283.069 340.05 282.824 340.439 282.658 340.868C282.491 341.296 282.405 341.756 282.405 342.22C282.405 342.684 282.491 343.143 282.658 343.572C282.824 344 283.069 344.389 283.377 344.717C283.684 345.045 284.05 345.305 284.452 345.482C284.854 345.658 285.285 345.749 285.72 345.748H352.851C353.729 345.748 354.57 345.377 355.191 344.715C355.812 344.053 356.16 343.156 356.16 342.22C356.16 341.284 355.812 340.386 355.191 339.725C354.57 339.063 353.729 338.691 352.851 338.691H285.72Z" fill="#E6E6E6"/>
<path d="M319.286 404.627C315.166 404.627 311.139 403.324 307.713 400.884C304.288 398.443 301.618 394.974 300.041 390.916C298.465 386.857 298.052 382.391 298.856 378.083C299.66 373.774 301.644 369.817 304.557 366.711C307.47 363.604 311.182 361.489 315.222 360.632C319.263 359.775 323.451 360.215 327.257 361.896C331.064 363.577 334.317 366.424 336.606 370.076C338.895 373.729 340.116 378.023 340.116 382.416C340.11 388.305 337.913 393.95 334.008 398.114C330.103 402.278 324.809 404.62 319.286 404.627V404.627Z" fill="#F5A99C"/>
<path d="M569.419 0H686.404C687.696 0.00161802 688.935 0.549723 689.849 1.52408C690.763 2.49844 691.277 3.81949 691.278 5.19744V135.108C691.277 136.486 690.763 137.807 689.849 138.781C688.935 139.756 687.696 140.304 686.404 140.306H569.419C568.127 140.304 566.888 139.756 565.974 138.781C565.06 137.807 564.546 136.486 564.545 135.108V5.19744C564.546 3.81949 565.06 2.49844 565.974 1.52408C566.888 0.549723 568.127 0.00161802 569.419 0V0ZM686.404 138.227C687.179 138.226 687.923 137.897 688.471 137.312C689.019 136.728 689.328 135.935 689.329 135.108V5.19744C689.328 4.37065 689.019 3.57798 688.471 2.99335C687.923 2.40872 687.179 2.07988 686.404 2.07897H569.419C568.644 2.07988 567.9 2.40872 567.352 2.99335C566.804 3.57798 566.495 4.37065 566.494 5.19744V135.108C566.495 135.935 566.804 136.728 567.352 137.312C567.9 137.897 568.644 138.226 569.419 138.227H686.404Z" fill="#3F3D56"/>
<path d="M661.477 113.516C662.354 113.516 663.196 113.144 663.817 112.482C664.437 111.82 664.786 110.923 664.786 109.987C664.786 109.051 664.437 108.154 663.817 107.492C663.196 106.83 662.354 106.458 661.477 106.458H594.346C593.468 106.458 592.627 106.83 592.006 107.492C591.386 108.154 591.037 109.051 591.037 109.987C591.037 110.923 591.386 111.82 592.006 112.482C592.627 113.144 593.468 113.516 594.346 113.516H661.477Z" fill="#E6E6E6"/>
<path d="M661.477 92.7259C662.354 92.7259 663.196 92.3541 663.817 91.6924C664.437 91.0306 664.786 90.1331 664.786 89.1973C664.786 88.2614 664.437 87.3639 663.817 86.7022C663.196 86.0404 662.354 85.6686 661.477 85.6686H594.346C593.468 85.6686 592.627 86.0404 592.006 86.7022C591.386 87.3639 591.037 88.2614 591.037 89.1973C591.037 90.1331 591.386 91.0306 592.006 91.6924C592.627 92.3541 593.468 92.7259 594.346 92.7259H661.477Z" fill="#E6E6E6"/>
<path d="M627.911 26.7899C632.031 26.7899 636.058 28.0926 639.484 30.5332C642.909 32.9737 645.579 36.4426 647.156 40.5011C648.733 44.5597 649.145 49.0255 648.341 53.334C647.538 57.6425 645.554 61.6002 642.64 64.7064C639.727 67.8127 636.016 69.9281 631.975 70.7851C627.934 71.6421 623.746 71.2022 619.94 69.5211C616.134 67.84 612.88 64.9932 610.592 61.3406C608.303 57.6881 607.081 53.3938 607.081 49.0009C607.087 43.1122 609.284 37.4667 613.189 33.3027C617.094 29.1388 622.389 26.7966 627.911 26.7899Z" fill="#F5A99C"/>
<path d="M225.464 268.765C246.165 251.669 270.351 240.011 296.063 234.735C321.98 229.469 348.705 230.933 373.979 239.004C386.684 243.037 398.891 248.677 410.339 255.803C422.004 263.074 432.544 272.025 442.686 281.502C452.96 291.103 462.895 301.131 473.62 310.169C504.239 336.266 542.251 350.524 581.449 350.615C584.687 350.621 587.923 350.526 591.157 350.33C592.91 350.227 592.921 347.306 591.157 347.409C551.201 349.755 511.743 337.042 479.692 311.495C468.576 302.632 458.427 292.498 448.065 282.678C438.019 273.157 427.705 263.896 416.308 256.247C388.43 237.521 355.999 227.961 323.059 228.762C290.12 229.563 258.131 240.688 231.083 260.749C228.511 262.656 225.999 264.649 223.527 266.7C222.137 267.853 224.088 269.907 225.464 268.765V268.765Z" fill="#3F3D56"/>
<path d="M224.01 282.883C231.872 282.883 238.245 276.087 238.245 267.704C238.245 259.321 231.872 252.525 224.01 252.525C216.147 252.525 209.774 259.321 209.774 267.704C209.774 276.087 216.147 282.883 224.01 282.883Z" fill="#3F3D56"/>
<path d="M753.604 484.422C761.466 484.422 767.84 477.626 767.84 469.243C767.84 460.86 761.466 454.064 753.604 454.064C745.742 454.064 739.368 460.86 739.368 469.243C739.368 477.626 745.742 484.422 753.604 484.422Z" fill="#3F3D56"/>
<path d="M828.181 382.775H595.899C594.606 382.773 593.368 382.225 592.454 381.251C591.54 380.276 591.026 378.955 591.024 377.577V248.706C591.026 247.328 591.54 246.007 592.454 245.033C593.368 244.058 594.606 243.51 595.899 243.509H828.181C829.474 243.51 830.712 244.058 831.626 245.033C832.54 246.007 833.054 247.328 833.056 248.706V377.577C833.054 378.955 832.54 380.276 831.626 381.251C830.713 382.225 829.474 382.773 828.181 382.775ZM595.899 245.588C595.123 245.588 594.38 245.917 593.832 246.502C593.283 247.087 592.975 247.879 592.974 248.706V377.577C592.975 378.404 593.283 379.197 593.832 379.781C594.38 380.366 595.123 380.695 595.899 380.696H828.181C828.957 380.695 829.7 380.366 830.248 379.781C830.797 379.197 831.105 378.404 831.106 377.577V248.706C831.105 247.879 830.797 247.087 830.248 246.502C829.7 245.917 828.957 245.588 828.181 245.588H595.899Z" fill="#3F3D56"/>
<path d="M634.847 310.332C645.813 310.332 654.703 300.854 654.703 289.161C654.703 277.468 645.813 267.989 634.847 267.989C623.881 267.989 614.992 277.468 614.992 289.161C614.992 300.854 623.881 310.332 634.847 310.332Z" fill="#F5A99C"/>
<path d="M680.704 275.046C680.269 275.046 679.838 275.136 679.436 275.313C679.034 275.49 678.668 275.75 678.36 276.078C678.052 276.405 677.808 276.795 677.641 277.223C677.475 277.652 677.389 278.111 677.389 278.575C677.389 279.039 677.475 279.498 677.641 279.927C677.808 280.355 678.052 280.745 678.36 281.072C678.668 281.4 679.034 281.66 679.436 281.837C679.838 282.014 680.269 282.104 680.704 282.104H805.779C806.657 282.104 807.498 281.732 808.119 281.07C808.74 280.408 809.088 279.511 809.088 278.575C809.088 277.639 808.74 276.742 808.119 276.08C807.498 275.418 806.657 275.046 805.779 275.046H680.704Z" fill="#E6E6E6"/>
<path d="M680.704 296.218C680.269 296.217 679.838 296.308 679.436 296.485C679.034 296.662 678.668 296.922 678.36 297.249C678.052 297.577 677.808 297.966 677.641 298.395C677.475 298.823 677.389 299.283 677.389 299.747C677.389 300.211 677.475 300.67 677.641 301.098C677.808 301.527 678.052 301.916 678.36 302.244C678.668 302.572 679.034 302.832 679.436 303.008C679.838 303.185 680.269 303.276 680.704 303.275H747.835C748.713 303.275 749.554 302.903 750.175 302.242C750.795 301.58 751.144 300.682 751.144 299.747C751.144 298.811 750.795 297.913 750.175 297.252C749.554 296.59 748.713 296.218 747.835 296.218H680.704Z" fill="#E6E6E6"/>
<path d="M619.618 330.065C617.1 330.065 615.052 331.648 615.052 333.594C615.052 335.539 617.1 337.122 619.618 337.122H803.927C806.445 337.122 808.493 335.539 808.493 333.594C808.493 331.648 806.445 330.065 803.927 330.065H619.618Z" fill="#E6E6E6"/>
<path d="M619.618 351.237C617.1 351.237 615.052 352.82 615.052 354.765C615.052 356.711 617.1 358.294 619.618 358.294H803.927C806.445 358.294 808.493 356.711 808.493 354.765C808.493 352.82 806.445 351.237 803.927 351.237H619.618Z" fill="#E6E6E6"/>
<path d="M577.227 483.374C590.331 477.313 604.962 482.597 617.314 488.184C623.675 491.061 629.968 494.133 636.552 496.405C642.09 498.311 647.762 499.744 653.513 500.691C665.055 502.576 676.794 502.652 688.357 500.918C699.978 499.19 711.304 495.678 721.982 490.492C732.601 485.361 742.416 478.518 751.084 470.205C752.187 469.142 753.268 468.056 754.328 466.945C755.59 465.627 753.652 463.563 752.391 464.88C744.045 473.555 734.463 480.768 724.001 486.249C713.583 491.712 702.47 495.519 691.017 497.548C679.526 499.614 667.81 499.829 656.259 498.188C650.497 497.357 644.806 496.038 639.241 494.243C632.849 492.026 626.578 489.429 620.458 486.464C607.991 480.755 594.139 475.165 580.44 479.102C578.87 479.565 577.334 480.15 575.844 480.852C574.231 481.598 575.624 484.115 577.227 483.374V483.374Z" fill="#3F3D56"/>
<path d="M572.164 519.198H462.422L488.248 471.5C488.711 470.646 489.376 469.936 490.178 469.442C490.98 468.948 491.889 468.689 492.815 468.689C493.741 468.689 494.65 468.948 495.452 469.442C496.254 469.936 496.919 470.646 497.382 471.5L508.415 491.876L527.174 457.231C527.753 456.16 528.587 455.272 529.591 454.654C530.595 454.036 531.733 453.71 532.892 453.71C534.051 453.71 535.19 454.036 536.194 454.654C537.198 455.272 538.031 456.16 538.611 457.231L572.164 519.198Z" fill="#F5A99C"/>
<path d="M572.267 519.185H455.282C453.99 519.184 452.751 518.636 451.837 517.661C450.923 516.687 450.409 515.366 450.408 513.988V444.368C450.409 442.99 450.923 441.669 451.837 440.694C452.751 439.72 453.99 439.172 455.282 439.17H572.267C573.56 439.172 574.798 439.72 575.712 440.694C576.626 441.669 577.14 442.99 577.142 444.368V513.988C577.14 515.366 576.626 516.687 575.712 517.661C574.798 518.636 573.56 519.184 572.267 519.185ZM455.282 441.249C454.507 441.25 453.764 441.579 453.215 442.164C452.667 442.748 452.359 443.541 452.358 444.368V513.988C452.359 514.815 452.667 515.607 453.215 516.192C453.764 516.777 454.507 517.106 455.282 517.106H572.267C573.043 517.106 573.786 516.777 574.334 516.192C574.883 515.607 575.191 514.815 575.192 513.988V444.368C575.191 443.541 574.883 442.748 574.334 442.164C573.786 441.579 573.043 441.25 572.267 441.249H455.282Z" fill="#3F3D56"/>
<path d="M801.718 457.912L780.866 469.203C773.423 473.233 766.24 472.544 763.49 464.141C762.835 462.141 762.593 460.014 762.781 457.906C762.969 455.797 763.582 453.757 764.578 451.924C765.574 450.092 766.929 448.51 768.552 447.288C770.174 446.066 772.025 445.232 773.977 444.843L793.796 440.898L878.673 410.871L930.089 371.997L948.937 404.016L889.527 438.198L801.718 457.912Z" fill="#FFB8B8"/>
<path d="M899.058 832.682L883.103 829.847L884.876 797.714H901.717L899.058 832.682Z" fill="#FFB8B8"/>
<path d="M1053.9 801.297L1038.46 806.433L1026.46 776.897L1041.49 768.805L1053.9 801.297Z" fill="#FFB8B8"/>
<path d="M1045.3 773.141L1025.8 781.647L932.738 651.226L903.489 804.329L883.99 800.549C871.482 668.554 861.282 533.92 873.797 470.243L946.033 466.935L978.827 578.455L994.781 654.061L1045.3 773.141Z" fill="#2F2E41"/>
<path d="M898.18 858.669C895.263 859.335 892.222 858.991 889.502 857.685L880.025 853.138C872.078 852.703 866.667 854.39 862.242 848.234C860.994 846.474 860.21 844.39 859.972 842.198C859.734 840.006 860.05 837.786 860.888 835.769V835.769C861.719 833.744 863.04 831.992 864.716 830.692C866.391 829.392 868.361 828.591 870.424 828.371L883.441 819.625L884.124 826.182C890.074 829.775 897.137 828.223 904.622 824.724L908.707 839.972C909.234 841.938 909.377 843.998 909.126 846.026C908.875 848.053 908.236 850.003 907.249 851.756C906.262 853.509 904.948 855.028 903.388 856.217C901.828 857.406 900.055 858.24 898.18 858.669Z" fill="#2F2E41"/>
<path d="M1060.22 827.392C1057.66 829.032 1054.68 829.759 1051.71 829.466L1041.36 828.447C1033.71 830.787 1029.11 834.257 1023.05 829.966C1021.33 828.734 1019.96 827.034 1019.06 825.043C1018.17 823.053 1017.8 820.844 1017.97 818.645C1018.14 816.443 1018.86 814.328 1020.05 812.518C1021.24 810.708 1022.86 809.269 1024.74 808.347L1034.39 795.567L1037.03 801.532C1043.75 802.871 1049.96 798.957 1055.97 793.057L1064.48 806.063C1065.58 807.74 1066.34 809.64 1066.72 811.644C1067.1 813.648 1067.09 815.714 1066.69 817.714C1066.29 819.714 1065.51 821.605 1064.4 823.269C1063.28 824.934 1061.86 826.337 1060.22 827.392V827.392Z" fill="#2F2E41"/>
<path d="M919.443 332.734C937.066 332.734 951.351 317.501 951.351 298.711C951.351 279.921 937.066 264.688 919.443 264.688C901.821 264.688 887.535 279.921 887.535 298.711C887.535 317.501 901.821 332.734 919.443 332.734Z" fill="#FFB8B8"/>
<path d="M958.442 370.538L916.784 361.087L911.467 324.229L940.715 317.613L958.442 370.538Z" fill="#FFB8B8"/>
<path d="M946.92 471.661H872.468L889.249 426.735C888.03 411.277 894.174 399.907 902.969 390.009L914.125 360.141C932.152 347.491 945.742 348.436 960.215 364.867C977.373 390.771 965.496 429.712 946.92 471.661Z" fill="#6C63FF"/>
<path d="M913.239 567.114L911.122 591.948C910.366 600.812 906 606.933 897.863 604.95C895.927 604.478 894.109 603.566 892.534 602.275C890.959 600.984 889.664 599.346 888.738 597.472C887.811 595.599 887.276 593.534 887.168 591.419C887.059 589.304 887.381 587.189 888.11 585.219L895.512 565.224L916.784 472.606L913.239 405.505H948.692L944.261 477.331L913.239 567.114Z" fill="#FFB8B8"/>
<path d="M951.351 407.395H910.58L913.438 379.036C913.626 374.131 915.527 369.478 918.767 365.991C922.008 362.504 926.354 360.434 930.952 360.189V360.189C933.388 360.059 935.825 360.446 938.121 361.327C940.416 362.208 942.525 363.565 944.325 365.321C946.125 367.076 947.581 369.195 948.609 371.555C949.636 373.914 950.214 376.468 950.309 379.067L951.351 407.395Z" fill="#6C63FF"/>
<path d="M958.934 263.728C965.558 263.728 970.927 258.002 970.927 250.94C970.927 243.877 965.558 238.151 958.934 238.151C952.31 238.151 946.941 243.877 946.941 250.94C946.941 258.002 952.31 263.728 958.934 263.728Z" fill="#2F2E41"/>
<path d="M946.576 247.809C946.773 244.564 948.123 241.522 950.35 239.301C952.577 237.081 955.514 235.849 958.564 235.856C958.316 235.823 958.071 235.782 957.818 235.765C954.645 235.549 951.521 236.686 949.134 238.926C946.747 241.165 945.291 244.323 945.087 247.707C944.883 251.09 945.947 254.422 948.046 256.968C950.145 259.515 953.106 261.069 956.279 261.289C956.532 261.306 956.78 261.299 957.029 261.3C954.004 260.891 951.239 259.268 949.297 256.762C947.355 254.255 946.382 251.054 946.576 247.809V247.809Z" fill="#2F2E41"/>
<path d="M946.508 253.27C935.812 243.809 905.133 255.833 903.153 262.194C888.689 264.296 877.738 273.294 877.738 289.294V289.294C886.337 293.051 896.117 292.588 906.69 289.294C923.543 303.939 924.698 322.349 914.449 343.494L927.058 343.763L942.688 319.405L943.436 344.112L972.339 343.494V308.088C972.433 296.315 969.892 284.689 964.927 274.173C960.423 264.843 953.433 259.395 946.508 253.27Z" fill="#2F2E41"/>
<path d="M919.593 315.826C922.761 315.826 925.328 311.992 925.328 307.264C925.328 302.536 922.761 298.703 919.593 298.703C916.426 298.703 913.858 302.536 913.858 307.264C913.858 311.992 916.426 315.826 919.593 315.826Z" fill="#FFB8B8"/>
<path d="M197.966 318.128C197.966 318.128 201.419 254.411 219.341 268.889C237.264 283.368 211.514 324.037 211.514 324.037L197.966 318.128Z" fill="#FFB9B9"/>
<path d="M131.285 507.129C131.285 507.129 171.098 554.787 148.823 558.063C126.548 561.339 117.786 513.166 117.786 513.166L131.285 507.129Z" fill="#FFB9B9"/>
<path d="M79.3322 281.54C84.3291 282.942 88.8261 285.887 92.2585 290.005C95.6909 294.124 97.9055 299.232 98.6244 304.688L111.288 400.801L129.042 477.468C129.042 477.468 137.919 485.987 134.368 490.719C130.817 495.452 138.806 515.329 138.806 515.329L116.615 522.901C116.615 522.901 113.951 503.024 109.513 502.077C105.613 501.246 61.9484 376.871 51.4236 346.741C49.9723 342.586 49.1512 340.224 49.1512 340.224C49.1512 340.224 50.9266 276.807 79.3322 281.54Z" fill="#575A89"/>
<path d="M83.3856 782.759L97.0165 808.515C107.572 832.546 98.192 836.911 72.3106 824.999L66.4109 794.586L83.3856 782.759Z" fill="#FFB9B9"/>
<path d="M90.2632 816.991C90.2632 816.991 96.734 805.757 99.0744 807.638C101.415 809.518 111.068 817.666 111.068 817.666L123.642 830.507C123.642 830.507 166.123 835.296 139.13 851.167C112.136 867.039 97.2184 853.879 97.2184 853.879C97.2184 853.879 59.4111 855.975 60.0209 844.728C60.6308 833.481 72.8239 815.687 72.8239 815.687C72.8239 815.687 88.1914 826.672 90.2632 816.991Z" fill="#2F2E41"/>
<path d="M22.8987 491.617L35.6777 656.491C35.6777 656.491 36.1037 755.052 49.7346 774.129C63.3654 793.205 63.7913 802.743 63.7913 802.743L91.905 787.301C91.905 787.301 77.4222 761.568 80.404 757.629C82.242 755.131 83.5499 752.237 84.2376 749.148L76.5703 647.407L91.0531 470.27L22.8987 491.617Z" fill="#2F2E41"/>
<path d="M57.8273 782.759L45.9004 816.369L18.8516 804.311L33.1217 779.125L57.8273 782.759Z" fill="#FFB9B9"/>
<path d="M37.93 805.049C37.93 805.049 48.0747 798.288 49.3427 800.992C50.6108 803.697 55.6832 815.19 55.6832 815.19L61.3896 832.091C61.3896 832.091 96.262 855.754 66.4619 857.106C36.6619 858.458 29.0534 840.204 29.0534 840.204C29.0534 840.204 -4.55093 824.655 0.521449 815.19C5.59383 805.725 23.347 795.908 23.347 795.908C23.347 795.908 32.2236 812.485 37.93 805.049Z" fill="#2F2E41"/>
<path d="M131.094 492.071L137.909 643.774C137.909 643.774 75.7184 780.942 68.9029 784.575C66.8721 785.694 65.0719 787.234 63.6087 789.106C62.1454 790.979 61.0488 793.145 60.3836 795.476L22.8987 785.484L39.9374 756.415L77.4223 659.217C77.4223 659.217 83.3857 656.491 85.0896 647.407C86.7935 638.323 90.2012 638.323 81.6819 636.507C73.1626 634.69 73.1626 625.606 73.1626 625.606L45.0489 487.529L131.094 492.071Z" fill="#2F2E41"/>
<path d="M134.061 223.556C137.076 203.747 124.46 185.083 105.883 181.868C87.3056 178.654 69.8019 192.106 66.7872 211.915C63.7725 231.723 76.3885 250.387 94.9658 253.602C113.543 256.816 131.047 243.364 134.061 223.556Z" fill="#FFB9B9"/>
<path d="M70.1808 220.006C70.1808 220.006 67.625 266.334 64.2173 270.876C60.8097 275.418 99.9984 274.51 99.9984 274.51C99.9984 274.51 97.4426 235.449 99.9984 231.815C102.554 228.182 70.1808 220.006 70.1808 220.006Z" fill="#FFB9B9"/>
<path d="M133.646 502.065C133.646 502.065 37.3782 492.983 19.4922 502.065C19.4922 502.065 26.0765 476.02 24.3752 473.299C23.1379 471.308 26.5516 397.118 25.48 354.322C24.8723 330.174 19.6469 306.591 34.8372 288.662C40.0075 282.572 45.7743 277.459 51.8615 274.962C51.8615 274.962 50.1602 257.704 58.6778 256.797C58.6778 256.797 91.0582 253.157 102.978 264.066C106.79 267.529 109.187 278.084 109.441 287.178C103.542 318.111 105.63 352.438 111.043 388.048C111.375 390.31 111.739 392.583 112.104 394.857C117.848 430.173 126.532 466.584 133.646 502.065Z" fill="#3639A3"/>
<path d="M82.6218 228.442C85.5037 228.259 88.3177 229.297 91.1796 229.702C101.419 231.152 112.071 223.229 114.331 212.483C114.513 211.052 114.913 209.662 115.516 208.369C117.091 205.625 120.68 205.102 123.639 205.733C126.597 206.364 129.402 207.841 132.415 208.009C137.067 208.269 141.533 205.216 144.012 201.01C146.355 196.672 147.352 191.654 146.859 186.676L144.629 189.172C143.722 187.127 143.373 184.853 143.619 182.607C142.437 182.271 141.194 182.265 140.009 182.588C138.825 182.911 137.737 183.554 136.852 184.453C134.886 184.676 136.37 180.564 134.909 179.143C134.198 178.677 133.351 178.508 132.531 178.668C128.348 178.711 124.963 175.3 121.667 172.553C115.955 167.805 109.275 164.556 102.168 163.069C97.4441 162.087 92.4207 161.929 87.9407 163.805C84.3242 165.536 81.0603 168.005 78.3328 171.072C71.3189 178.263 65.108 186.713 62.1901 196.611C59.818 204.718 59.7508 213.393 61.997 221.54C63.1728 225.772 66.7162 240.263 71.9038 240.601C78.422 241.025 74.5085 228.958 82.6218 228.442Z" fill="#2F2E41"/>
<path d="M96.7271 286L108.936 287.394C108.936 287.394 120.92 312.187 120.05 317.358C119.18 322.529 117.284 319.39 122.679 327.663C128.073 335.937 143.379 357.323 145.274 360.462C147.17 363.602 198.842 321.563 195.63 308.968C195.63 308.968 211.95 321.452 218.941 323.113C218.941 323.113 165.689 397.583 158.268 407.113C150.847 416.643 144.874 414.686 134.676 409.035C124.477 403.385 72.884 347.022 72.884 347.022L96.7271 286Z" fill="#3639A3"/>
<path opacity="0.1" d="M112.104 394.857L69.6701 349.61L80.4083 345.876L111.043 388.048C111.375 390.31 111.739 392.583 112.104 394.857Z" fill="black"/>
</g>
<defs>
<clipPath id="clip0">
<rect width="1067" height="859" fill="white"/>
</clipPath>
</defs>
</svg>
